Body of Proof S01E06 ENG+NL Subs

Twee versies: Een map met een .MKV en een map met een .AVI. Vink de map die je niet wil uit en downloaden maar :)
Two versions: One folder with .MKV and one folder with an .AVI. Uncheck the folder you don't want and start the download :)

Verenigde Staten ~ 60 minuten per aflevering ~ gecreëerd door Chris Murphey ~ met Windell Middlebrooks, Dana Delany en Jeri Ryan.

Curtis betwijfelt Ethan's interesse in het onderzoek van de mysterieuze dood van een mooi tweeling; Megan loopt tegen verzet op terwijl ze de dood van een patient onderzoekt in het ziekenhuis waar ze werkte.

Bestandsformaat: .MKV en .AVI
Bestandsgrootte: 1,33 GB en 349 MB
Taal: Engels in 5.1 en 2.0
Ondertitelingen: Engels en Nederlands, beiden custom ~ Nederlands door wivr (in te stellen)
Categorie : Serie
Beelformaat: 16:9
Bron : WEB-DL en HDTV
Menu: Nee
Extra's: Nee
Genre : Misdaad ~ Drama
Weblink :  http://www.imdb.com/title/tt1587669/

~~~~~~~~~~~~~~~~~~~~~~
USA  ~ 60 minutes per episode ~ created by Chris Murphy ~ with Windell Middlebrooks, Dana Delany and Jeri Ryan

Curtis questions Ethan's interest in the investigation of the mysterious death of a beautiful twin; Megan runs into resistance while investigating the death of a patient at the hospital where she used to work.

File Format: .MKV and .AVI
File size: 1.37 and 349 MB
Language: English 5.1 and 2.0
Subtitles: English and Dutch, both custom  ~ Dutch by wivr (selectable)
Category : Series
Format : 16:9
Source : WEB-DL  and HDTV
Menu: No
Extras: No
Genre : Drama ~ Crime
Weblink :  http://www.imdb.com/title/tt1587669/

Video information:
~~~~~~~~~~~~~~~~~~~~~~
Video of the .AVI file:
ID                               : 0
Format                           : MPEG-4 Visual
Format profile                   : Advanced Simple@L5
Format settings, BVOP            : 2
Format settings, QPel            : No
Format settings, GMC             : No warppoints
Format settings, Matrix          : Default (H.263)
Codec ID                         : XVID
Codec ID/Hint                    : XviD
Duration                         : 42mn 12s
Bit rate                         : 1 015 Kbps
Width                            : 624 pixels
Height                           : 352 pixels
Display aspect ratio             : 16:9
Frame rate                       : 23.976 fps
Color space                      : YUV
Chroma subsampling               : 4:2:0
Bit depth                        : 8 bits
Scan type                        : Progressive
Compression mode                 : Lossy
Bits/(Pixel*Frame)               : 0.193
Stream size                      : 306 MiB (88%)
Writing library                  : XviD 1.2.1 (UTC 2008-12-04)

Video of the .MKV file:
ID                               : 1
Format                           : AVC
Format/Info                      : Advanced Video Codec
Format profile                   : High@L3.1
Format settings, CABAC           : No
Format settings, ReFrames        : 2 frames
Codec ID                         : V_MPEG4/ISO/AVC
Duration                         : 43mn 30s
Bit rate                         : 3 922 Kbps
Width                            : 1 280 pixels
Height                           : 720 pixels
Display aspect ratio             : 16:9
Frame rate                       : 23.976 fps
Color space                      : YUV
Chroma subsampling               : 4:2:0
Bit depth                        : 8 bits
Scan type                        : Progressive
Bits/(Pixel*Frame)               : 0.177
Stream size                      : 1.19 GiB (89%)
Title                            : Body of Proof - Season 1, Episode 6: Society Hill
Language                         : English
Color primaries                  : BT.709-5, BT.1361, IEC 61966-2-4, SMPTE RP177
Transfer characteristics         : BT.709-5, BT.1361
Matrix coefficients              : BT.709-5, BT.1361, IEC 61966-2-4 709, SMPTE RP177

~~~~~~~~~~~~~~~
Hornigold TBS
~~~~~~~~~~~~~~~